<?xml version="1.0" encoding="utf-8"?>
<!-- Generator: Adobe Illustrator 20.1.0, SVG Export Plug-In . SVG Version: 6.00 Build 0)  -->
<svg version="1.1" id="Layer_1" xmlns="http://www.w3.org/2000/svg" xmlns:xlink="http://www.w3.org/1999/xlink" x="0px" y="0px"
	 viewBox="0 0 1408 1172" style="enable-background:new 0 0 1408 1172;" xml:space="preserve">
<g>
	<path d="M90.6,338.5c10-0.9,20-1.8,29.9-2.9c21-2.4,42.1-4.8,63.1-7.4c21-2.6,42-5.5,63-8.3c21-2.9,41.9-5.8,62.9-8.9
		c20.5-3,40.9-6.2,61.4-9.4c26.6-4.2,53.1-8.3,79.7-12.7c35.2-5.8,70.3-11.7,105.5-17.7c30.1-5.1,60.2-10.4,90.3-15.6
		c25.7-4.4,51.4-9,77.1-13.3c28.1-4.7,56.2-9.2,84.3-13.6c25.5-3.9,50.9-7.8,76.5-11.3c21.6-2.9,43.3-5.4,64.9-7.9
		c18.9-2.2,37.9-4.5,56.9-6.5c15-1.6,30.1-2.7,45.2-4.1c14.1-1.3,28.2-2.7,42.4-3.7c18.1-1.3,36.3-2.4,54.4-3.2
		c40.6-1.7,81.3-3.1,121.9-4.4c14.4-0.5,28.7,0,43.1-0.2c3.4,0,4.6,1.2,4.4,4.5c-0.2,3.5,0.1,7,0,10.5c-0.1,6.7-0.1,6.7-6.6,6.8
		c-6.9,0.1-13.7,0-20.6,0.1c-21.4,0.3-42.8,0.2-64.1,1c-30.6,1.1-61.2,2.7-91.7,4.5c-23.7,1.4-47.4,3-71,5.1
		c-24.6,2.1-49.1,4.8-73.7,7.4c-20.4,2.2-40.8,4.4-61.2,6.9c-20.5,2.5-41.1,5.3-61.5,8.4c-33.7,5-67.4,10.1-101.1,15.5
		c-30.7,4.9-61.3,10.3-91.9,15.5c-40.4,6.9-80.7,14-121.1,20.8c-60.1,10-120.1,20.1-180.3,29.6c-43.9,6.9-88,13.1-132,19.1
		c-29.2,4-58.5,7.2-87.8,10.8c-18.6,2.2-37.3,4.4-56,6.5c-2,0.2-4.1,0-6.2,0C90.6,353.2,90.6,345.9,90.6,338.5z"/>
</g>
<g>
	<path d="M90.6,929c10-0.9,20-1.8,29.9-2.9c21-2.4,42.1-4.8,63.1-7.4c21-2.6,42-5.5,63-8.3c21-2.9,41.9-5.8,62.9-8.9
		c20.5-3,40.9-6.2,61.4-9.4c26.6-4.2,53.1-8.3,79.7-12.7c35.2-5.8,70.3-11.7,105.5-17.7c30.1-5.1,60.2-10.4,90.3-15.6
		c25.7-4.4,51.4-9,77.1-13.3c28.1-4.7,56.2-9.2,84.3-13.6c25.5-3.9,50.9-7.8,76.5-11.3c21.6-2.9,43.3-5.4,64.9-7.9
		c18.9-2.2,37.9-4.5,56.9-6.5c15-1.6,30.1-2.7,45.2-4.1c14.1-1.3,28.2-2.7,42.4-3.7c18.1-1.3,36.3-2.4,54.4-3.2
		c40.6-1.7,81.3-3.1,121.9-4.4c14.4-0.5,28.7,0,43.1-0.2c3.4,0,4.6,1.2,4.4,4.5c-0.2,3.5,0.1,7,0,10.5c-0.1,6.7-0.1,6.7-6.6,6.8
		c-6.9,0.1-13.7,0-20.6,0.1c-21.4,0.3-42.8,0.2-64.1,1c-30.6,1.1-61.2,2.7-91.7,4.5c-23.7,1.4-47.4,3-71,5.1
		c-24.6,2.1-49.1,4.8-73.7,7.4c-20.4,2.2-40.8,4.4-61.2,6.9c-20.5,2.5-41.1,5.3-61.5,8.4c-33.7,5-67.4,10.1-101.1,15.5
		c-30.7,4.9-61.3,10.3-91.9,15.5c-40.4,6.9-80.7,14-121.1,20.8c-60.1,10-120.1,20.1-180.3,29.6c-43.9,6.9-88,13.1-132,19.1
		c-29.2,4-58.5,7.2-87.8,10.8c-18.6,2.2-37.3,4.4-56,6.5c-2,0.2-4.1,0-6.2,0C90.6,943.7,90.6,936.4,90.6,929z"/>
</g>
</svg>
