<svg xmlns="http://www.w3.org/2000/svg" viewBox="0 0 100 100" enable-background="new 0 0 100 100"><style type="text/css">.st0{fill:#305B35;}</style><path d="M54.3 44.8V34.7c3.3.8 6.5 2.3 9.2 4.8.2.2.4.3.7.3.4 0 .7-.2.9-.4l4.3-6c.2-.2.3-.5.3-.7 0-.3-.2-.6-.4-.8-4-3.7-9-5.8-14.9-6.5v-5.8c0-.6-.5-1.2-1.2-1.2h-4.6c-.6 0-1.2.5-1.2 1.2V25c-9.9 1-15.8 7.3-15.8 14.7 0 10 8.2 12.8 15.8 14.7v11.4c-4.8-.9-8.8-3.4-11.5-6.2 0 0 0 0-.1-.1 0 0 0 0-.1-.1-.2-.2-.4-.3-.7-.3-.4 0-.8.3-1 .6l-4.1 6.1c-.2.2-.3.5-.3.7 0 .4.2.7.4.9 4 4 9.7 7 17.4 7.6v5.4c0 .6.5 1.2 1.2 1.2h4.6c.6 0 1.2-.5 1.2-1.2V75c10.8-1.1 16.1-7.4 16.1-15.5-.1-9.9-8.6-12.8-16.2-14.7zm-6.9-1.7c-3-1-5.1-2.1-5.1-4.2 0-2.5 1.8-4.2 5.1-4.7v8.9zm6.9 22.8v-9.8c3.2 1 5.5 2.2 5.5 4.6 0 2.3-1.8 4.5-5.5 5.2z" class="st0"/></svg>