<svg id="top_curves" data-name="top curves" xmlns="http://www.w3.org/2000/svg" xmlns:xlink="http://www.w3.org/1999/xlink" width="2999.873" height="448.004" viewBox="0 0 1366 204">
  <defs>
    <style>
      .cls-1 {
        fill: #fff;
        filter: url(#filter);
      }

      .cls-1, .cls-2, .cls-3, .cls-4, .cls-5 {
        fill-rule: evenodd;
      }

      .cls-2 {
        fill: #f6a900;
        filter: url(#filter-2);
      }

      .cls-3 {
        fill: #366f4a;
      }

      .cls-4 {
        fill: #568e38;
      }

      .cls-5 {
        fill: #bcc931;
      }
    </style>
    <filter id="filter" x="-6" y="157" width="1379" height="194" filterUnits="userSpaceOnUse">
      <feOffset result="offset" in="SourceAlpha"/>
      <feGaussianBlur result="blur" stdDeviation="2.646"/>
      <feFlood result="flood" flood-color="#1e222a" flood-opacity="0.28"/>
      <feComposite result="composite" operator="in" in2="blur"/>
      <feBlend result="blend" in="SourceGraphic"/>
    </filter>
    <filter id="filter-2" x="-9" y="167" width="1379" height="194" filterUnits="userSpaceOnUse">
      <feOffset result="offset" dx="-2.65" dy="4.24" in="SourceAlpha"/>
      <feGaussianBlur result="blur" stdDeviation="2.646"/>
      <feFlood result="flood" flood-color="#fff" flood-opacity="0.18"/>
      <feComposite result="composite" operator="in" in2="blur"/>
      <feBlend result="blend" in="SourceGraphic"/>
    </filter>
  </defs>
  <path id="white" class="cls-1" d="M300.8,280.9c0.951-.161,1.915-0.308,2.874-0.456,2.4-.378,4.8-0.748,7.19-1.129,2.2-.348,4.4-0.685,6.6-1.043,1.09-.168,2.2-0.348,3.315-0.529,3.006-.474,5.99-0.95,8.979-1.424,0.942-.148,1.885-0.306,2.836-0.454l9.645-1.553C519.15,245.86,681.389,214.929,796.484,198.73c125.086-17.551,244.706-29.37,362.966-33.793q20.865-.789,41.68-1.254,30.81-.7,61.55-0.685,51.51,0,103.03,2.026l0.29,0.009v23.121q-52.815-2.231-105.49-2.215-49.965,0-100.18,1.9c-114.8,4.325-231.49,15.809-354.482,33.073-111.675,15.65-274.607,46.643-452.63,75.322-114.311,18.4-234.965,35.858-353.224,47.773V320.855C99.8,310.638,202.073,296.351,300.8,280.9Z" transform="translate(0 -157)"/>
  <path id="Shape_3_copy_3" data-name="Shape 3 copy 3" class="cls-2" d="M300.8,286.9c0.951-.161,1.915-0.308,2.874-0.456,2.4-.379,4.8-0.748,7.19-1.129,2.2-.348,4.4-0.685,6.6-1.043,1.09-.168,2.2-0.348,3.315-0.529,3.006-.474,5.99-0.95,8.979-1.424,0.942-.148,1.885-0.306,2.836-0.454l9.645-1.553c176.913-28.448,339.152-59.38,454.247-75.578,125.086-17.551,244.706-29.37,362.966-33.793q20.865-.789,41.68-1.254,30.81-.695,61.55-0.686,51.51,0,103.03,2.027l0.29,0.009v23.121q-52.815-2.231-105.49-2.215-49.965,0-100.18,1.9c-114.8,4.325-231.49,15.809-354.482,33.073-111.675,15.651-274.607,46.643-452.63,75.322-114.311,18.4-234.965,35.858-353.224,47.773V326.855C99.8,316.638,202.073,302.351,300.8,286.9Z" transform="translate(0 -157)"/>
  <path class="cls-3" d="M300.8,283.9c0.951-.162,1.915-0.309,2.874-0.457,2.4-.379,4.8-0.748,7.19-1.129,2.2-.348,4.4-0.685,6.6-1.043,1.09-.168,2.2-0.348,3.315-0.529,3.006-.474,5.99-0.95,8.979-1.424,0.942-.148,1.885-0.306,2.836-0.454l9.645-1.553c176.913-28.448,339.152-59.38,454.247-75.578,125.086-17.551,244.706-29.37,362.966-33.793q20.865-.789,41.68-1.254,30.81-.695,61.55-0.685,51.51,0,103.03,2.026l0.29,0.009v23.121q-52.815-2.231-105.49-2.215-49.965,0-100.18,1.9c-114.8,4.325-231.49,15.809-354.482,33.073-111.675,15.651-274.607,46.643-452.63,75.322-114.311,18.4-234.965,35.858-353.224,47.773V323.855C99.8,313.639,202.073,299.351,300.8,283.9Z" transform="translate(0 -157)"/>
  <path id="Shape_3_copy" data-name="Shape 3 copy" class="cls-4" d="M300.8,283.9c0.951-.162,1.915-0.309,2.874-0.457,2.4-.379,4.8-0.748,7.19-1.129,2.2-.348,4.4-0.685,6.6-1.043,1.09-.168,2.2-0.348,3.315-0.529,3.006-.474,5.99-0.95,8.979-1.424,0.942-.148,1.885-0.306,2.836-0.454l9.645-1.553c176.913-28.448,339.152-59.38,454.247-75.578,125.086-17.551,244.706-29.37,362.966-33.793q20.865-.789,41.68-1.254,30.81-.695,61.55-0.685,51.51,0,103.03,2.026l0.29,0.009v23.121q-52.815-2.231-105.49-2.215-49.965,0-100.18,1.9c-114.8,4.325-231.49,15.809-354.482,33.073-111.675,15.651-274.607,46.643-452.63,75.322-114.311,18.4-234.965,35.858-353.224,47.773V323.855C99.8,313.639,202.073,299.351,300.8,283.9Z" transform="translate(0 -157)"/>
  <path id="Shape_3_copy_4" data-name="Shape 3 copy 4" class="cls-5" d="M300.8,283.9c0.951-.162,1.915-0.309,2.874-0.457,2.4-.379,4.8-0.748,7.19-1.129,2.2-.348,4.4-0.685,6.6-1.043,1.09-.168,2.2-0.348,3.315-0.529,3.006-.474,5.99-0.95,8.979-1.424,0.942-.148,1.885-0.306,2.836-0.454l9.645-1.553c176.913-28.448,339.152-59.38,454.247-75.578,125.086-17.551,244.706-29.37,362.966-33.793q20.865-.789,41.68-1.254,30.81-.695,61.55-0.685,51.51,0,103.03,2.026l0.29,0.009v23.121q-52.815-2.231-105.49-2.215-49.965,0-100.18,1.9c-114.8,4.325-231.49,15.809-354.482,33.073-111.675,15.651-274.607,46.643-452.63,75.322-114.311,18.4-234.965,35.858-353.224,47.773V323.855C99.8,313.639,202.073,299.351,300.8,283.9Z" transform="translate(0 -157)"/>
</svg>
