<?xml version="1.0" encoding="utf-8"?>
<!-- Generator: Adobe Illustrator 20.1.0, SVG Export Plug-In . SVG Version: 6.00 Build 0)  -->
<svg version="1.1" id="Layer_1" xmlns="http://www.w3.org/2000/svg" xmlns:xlink="http://www.w3.org/1999/xlink" x="0px" y="0px"
	 viewBox="0 0 100 100" style="enable-background:new 0 0 100 100;" xml:space="preserve">
<style type="text/css">
	.st0{fill:#305B35;}
</style>
<g>
	<path class="st0" d="M54.3,44.8V34.7c3.3,0.8,6.5,2.3,9.2,4.8l0,0c0.2,0.2,0.4,0.3,0.7,0.3c0.4,0,0.7-0.2,0.9-0.4l0,0l4.3-6l0,0
		c0.2-0.2,0.3-0.5,0.3-0.7c0-0.3-0.2-0.6-0.4-0.8c-4-3.7-9-5.8-14.9-6.5v-5.8h0c0-0.6-0.5-1.2-1.2-1.2h-4.6c-0.6,0-1.2,0.5-1.2,1.2
		V25c-9.9,1-15.8,7.3-15.8,14.7c0,10,8.2,12.8,15.8,14.7v11.4c-4.8-0.9-8.8-3.4-11.5-6.2c0,0,0,0-0.1-0.1c0,0,0,0-0.1-0.1l0,0
		c-0.2-0.2-0.4-0.3-0.7-0.3c-0.4,0-0.8,0.3-1,0.6l0,0l-4.1,6.1l0,0c-0.2,0.2-0.3,0.5-0.3,0.7c0,0.4,0.2,0.7,0.4,0.9l0,0
		c4,4,9.7,7,17.4,7.6v5.4c0,0.6,0.5,1.2,1.2,1.2l0,0h4.6c0.6,0,1.2-0.5,1.2-1.2h0v-5.4c10.8-1.1,16.1-7.4,16.1-15.5
		C70.4,49.6,61.9,46.7,54.3,44.8z M47.4,43.1c-3-1-5.1-2.1-5.1-4.2c0-2.5,1.8-4.2,5.1-4.7V43.1z M54.3,65.9v-9.8
		c3.2,1,5.5,2.2,5.5,4.6C59.8,63,58,65.2,54.3,65.9z"/>
</g>
</svg>
